<svg xmlns="http://www.w3.org/2000/svg" xml:space="preserve" id="svg1" version="1.1" viewBox="0 0 48.7900497371134 100.72003" style="max-height: 500px" width="48.7900497371134" height="100.72003">
  <defs id="defs1"><filter height="1.2724028" width="1.1254109" y="-0.13620138" x="-0.062705426" id="filter10" style="color-interpolation-filters:sRGB">
      <feGaussianBlur id="feGaussianBlur10" stdDeviation="0.26193867"/>
    </filter><filter height="1.2856531" width="1.264573" y="-0.14282656" x="-0.13228649" id="filter11" style="color-interpolation-filters:sRGB">
      <feGaussianBlur id="feGaussianBlur11" stdDeviation="0.26418492"/>
    </filter><filter height="1.0141774" width="1.0153936" y="-0.0070956398" x="-0.0076963796" id="filter17" style="color-interpolation-filters:sRGB">
      <feGaussianBlur id="feGaussianBlur17" stdDeviation="0.17784729"/>
    </filter><filter height="1.0414243" width="1.0313397" y="-0.020712149" x="-0.015669836" id="filter69" style="color-interpolation-filters:sRGB">
      <feGaussianBlur id="feGaussianBlur69" stdDeviation="0.15068128"/>
    </filter><filter height="1.1104892" width="1.127283" y="-0.055244589" x="-0.063641485" id="filter70" style="color-interpolation-filters:sRGB">
      <feGaussianBlur id="feGaussianBlur70" stdDeviation="0.15068128"/>
    </filter><filter height="1.1492727" width="1.0938441" y="-0.074636372" x="-0.046922026" id="filter71" style="color-interpolation-filters:sRGB">
      <feGaussianBlur id="feGaussianBlur71" stdDeviation="0.15068128"/>
    </filter><filter height="1.0579612" width="1.0616309" y="-0.028980584" x="-0.030815426" id="filter72" style="color-interpolation-filters:sRGB">
      <feGaussianBlur id="feGaussianBlur72" stdDeviation="0.15068128"/>
    </filter><filter height="1.1607657" width="1.0999481" y="-0.080382849" x="-0.049974063" id="filter73" style="color-interpolation-filters:sRGB">
      <feGaussianBlur id="feGaussianBlur73" stdDeviation="0.15068128"/>
    </filter><filter height="1.0829276" width="1.1034956" y="-0.041463789" x="-0.051747802" id="filter74" style="color-interpolation-filters:sRGB">
      <feGaussianBlur id="feGaussianBlur74" stdDeviation="0.15068128"/>
    </filter><filter height="1.0546908" width="1.0992587" y="-0.027345412" x="-0.049629336" id="filter75" style="color-interpolation-filters:sRGB">
      <feGaussianBlur id="feGaussianBlur75" stdDeviation="0.15068128"/>
    </filter><filter height="1.1054404" width="1.093845" y="-0.052720182" x="-0.046922497" id="filter76" style="color-interpolation-filters:sRGB">
      <feGaussianBlur id="feGaussianBlur76" stdDeviation="0.15068128"/>
    </filter><filter height="1.1480961" width="1.0293419" y="-0.074048028" x="-0.014670949" id="filter82" style="color-interpolation-filters:sRGB">
      <feGaussianBlur id="feGaussianBlur82" stdDeviation="0.21225798"/>
    </filter><clipPath id="clipPath16" clipPathUnits="userSpaceOnUse">
      <path id="path16" d="M 88.850236,49.178546 C 70.08672,67.557211 62.830173,89.397337 65.601736,116.72836 H 118.46785 C 123.01601,89.798197 112.83471,67.551022 93.27,49.139777 c -1.216102,-1.144405 -3.226805,-1.129721 -4.419764,0.03877 z" style="fill:#a9d14c;fill-opacity:1;stroke:none;stroke-width:0.710295;stroke-linecap:round;stroke-linejoin:round;stroke-opacity:1"/>
    </clipPath><clipPath id="clipPath17" clipPathUnits="userSpaceOnUse">
      <path id="path17" d="m 62.335027,85.352083 c 9.147275,6.018194 18.78451,13.800243 29.699554,26.182407 8.920179,-11.20441 18.689329,-19.295919 28.742209,-26.347066 1.26967,-0.890556 2.04181,-0.359892 2.0561,1.182169 0.0206,2.216312 0.24451,5.603274 0.57771,9.889098 0.41538,5.342919 0.0684,14.018279 -2.01544,18.945589 -3.64749,8.6246 -9.52809,14.38382 -16.57933,18.09652 -1.20971,0.63695 -3.29846,1.36004 -4.63153,1.6642 -4.292616,0.97943 -8.785004,1.63616 -14.398108,0.48249 -2.205236,-0.45325 -5.622789,-1.77283 -7.592818,-2.86365 C 70.393926,128.26525 64.743422,121.84157 61.660377,112.90283 59.915959,107.8452 59.653402,99.117677 59.62082,93.758759 59.60795,91.641751 59.5432,89.462496 59.376212,87.160542 c -0.158346,-2.182759 1.130216,-3.011535 2.958815,-1.808459 z" style="display:inline;fill:#ffffff;fill-opacity:1;stroke:none;stroke-width:0.665001;stroke-linecap:round;stroke-linejoin:round"/>
    </clipPath><clipPath id="clipPath18" clipPathUnits="userSpaceOnUse">
      <path id="path18" d="m 62.335027,85.352083 c 9.147275,6.018194 18.78451,13.800243 29.699554,26.182407 8.920179,-11.20441 18.689329,-19.295919 28.742209,-26.347066 1.26967,-0.890556 2.04181,-0.359892 2.0561,1.182169 0.0206,2.216312 0.24451,5.603274 0.57771,9.889098 0.41538,5.342919 0.0684,14.018279 -2.01544,18.945589 -3.64749,8.6246 -9.52809,14.38382 -16.57933,18.09652 -1.20971,0.63695 -3.29846,1.36004 -4.63153,1.6642 -4.292616,0.97943 -8.785004,1.63616 -14.398108,0.48249 -2.205236,-0.45325 -5.622789,-1.77283 -7.592818,-2.86365 C 70.393926,128.26525 64.743422,121.84157 61.660377,112.90283 59.915959,107.8452 59.653402,99.117677 59.62082,93.758759 59.60795,91.641751 59.5432,89.462496 59.376212,87.160542 c -0.158346,-2.182759 1.130216,-3.011535 2.958815,-1.808459 z" style="display:inline;fill:#ffffff;fill-opacity:1;stroke:none;stroke-width:0.665001;stroke-linecap:round;stroke-linejoin:round"/>
    </clipPath></defs>
  <g style="mix-blend-mode:normal;filter:url(#filter82)" transform="matrix(0.82443132,-0.30057624,0.24408852,0.66949476,-54.527055,21.020077)" id="g82">
    <ellipse ry="3.1665802" rx="9.3376665" cy="148.76505" cx="84.232635" id="path82" style="color:#000000;font-style:normal;font-variant:normal;font-weight:normal;font-stretch:normal;font-size:medium;line-height:normal;font-family:sans-serif;font-variant-ligatures:normal;font-variant-position:normal;font-variant-caps:normal;font-variant-numeric:normal;font-variant-alternates:normal;font-variant-east-asian:normal;font-feature-settings:normal;font-variation-settings:normal;text-indent:0;text-align:start;text-decoration-line:none;text-decoration-style:solid;text-decoration-color:#000000;letter-spacing:normal;word-spacing:normal;text-transform:none;writing-mode:lr-tb;direction:ltr;text-orientation:mixed;dominant-baseline:auto;baseline-shift:baseline;text-anchor:start;white-space:normal;shape-padding:0;shape-margin:0;inline-size:0;clip-rule:nonzero;display:inline;overflow:visible;visibility:visible;isolation:auto;mix-blend-mode:normal;color-interpolation:sRGB;color-interpolation-filters:linearRGB;solid-color:#000000;solid-opacity:1;vector-effect:none;fill:#e1e1e1;fill-opacity:1;fill-rule:nonzero;stroke:none;stroke-linecap:round;stroke-linejoin:round;stroke-miterlimit:4;stroke-dasharray:none;stroke-dashoffset:0;stroke-opacity:1;-inkscape-stroke:none;color-rendering:auto;image-rendering:auto;shape-rendering:auto;text-rendering:auto;enable-background:accumulate;stop-color:#000000;stop-opacity:1"/>
    <ellipse ry="3.1665802" rx="9.3376665" cy="148.21863" cx="100.28029" id="path82-2" style="color:#000000;font-style:normal;font-variant:normal;font-weight:normal;font-stretch:normal;font-size:medium;line-height:normal;font-family:sans-serif;font-variant-ligatures:normal;font-variant-position:normal;font-variant-caps:normal;font-variant-numeric:normal;font-variant-alternates:normal;font-variant-east-asian:normal;font-feature-settings:normal;font-variation-settings:normal;text-indent:0;text-align:start;text-decoration-line:none;text-decoration-style:solid;text-decoration-color:#000000;letter-spacing:normal;word-spacing:normal;text-transform:none;writing-mode:lr-tb;direction:ltr;text-orientation:mixed;dominant-baseline:auto;baseline-shift:baseline;text-anchor:start;white-space:normal;shape-padding:0;shape-margin:0;inline-size:0;clip-rule:nonzero;display:inline;overflow:visible;visibility:visible;isolation:auto;mix-blend-mode:normal;color-interpolation:sRGB;color-interpolation-filters:linearRGB;solid-color:#000000;solid-opacity:1;vector-effect:none;fill:#e1e1e1;fill-opacity:1;fill-rule:nonzero;stroke:none;stroke-linecap:round;stroke-linejoin:round;stroke-miterlimit:4;stroke-dasharray:none;stroke-dashoffset:0;stroke-opacity:1;-inkscape-stroke:none;color-rendering:auto;image-rendering:auto;shape-rendering:auto;text-rendering:auto;enable-background:accumulate;stop-color:#000000;stop-opacity:1"/>
  </g>
  <g transform="rotate(-20.031155,-76.813803,194.21184)" id="g77">
    <path id="path76" d="m 45.003906,94.765625 a 0.67270499,0.67270499 0 0 0 -0.193359,0.931641 c 4.789627,7.285974 11.102938,9.646054 17.748047,10.119144 a 0.67270499,0.67270499 0 0 0 0.71875,-0.62305 0.67270499,0.67270499 0 0 0 -0.623047,-0.71875 c -6.398827,-0.45555 -12.149679,-2.56516 -16.71875,-9.515626 a 0.67270499,0.67270499 0 0 0 -0.931641,-0.193359 z" style="stroke-linecap:round;stroke-linejoin:round"/>
    <circle cx="44.519535" cy="93.209427" r="2.5831926" id="path77" style="fill:#000000;stroke-width:0.710406;stroke-linecap:round;stroke-linejoin:round"/>
    <ellipse transform="matrix(0.93741746,0.34820756,-0.46185035,0.88695786,0,0)" ry="2.37781" rx="1.265239" cx="84.602638" cy="72.25251" id="path77-3" style="fill:#000000;stroke-width:0.477007;stroke-linecap:round;stroke-linejoin:round"/>
  </g>
  <g transform="matrix(-0.9395065,0.34253106,0.34253106,0.9395065,85.552356,-74.567051)" id="g78">
    <path id="path78" d="m 45.003906,94.765625 a 0.67270499,0.67270499 0 0 0 -0.193359,0.931641 c 4.789627,7.285974 11.102938,9.646054 17.748047,10.119144 a 0.67270499,0.67270499 0 0 0 0.71875,-0.62305 0.67270499,0.67270499 0 0 0 -0.623047,-0.71875 c -6.398827,-0.45555 -12.149679,-2.56516 -16.71875,-9.515626 a 0.67270499,0.67270499 0 0 0 -0.931641,-0.193359 z" style="stroke-linecap:round;stroke-linejoin:round"/>
    <path d="m 44.84028,90.617564 a 2.5831926,2.5831926 0 0 1 1.774596,1.058937 1.2516887,2.3849707 37.351287 0 1 0.622721,0.0552 1.2516887,2.3849707 37.351287 0 1 -0.227913,2.540509 1.2516887,2.3849707 37.351287 0 1 -2.055332,1.454163 2.5831926,2.5831926 0 0 1 -0.752679,0.01821 2.5831926,2.5831926 0 0 1 -2.244196,-2.882798 2.5831926,2.5831926 0 0 1 2.882797,-2.244195 z" style="fill:#000000;stroke-width:0.710406;stroke-linecap:round;stroke-linejoin:round" id="circle78"/>
  </g>
  <g transform="rotate(-20.031155,-76.178476,212.30999)" id="g80">
    <g id="path79">
      <path id="path11" d="m 83.657595,130.8411 1.552088,13.50318" style="stroke-linecap:round;stroke-linejoin:round"/>
      <path id="path12" d="m 83.583984,130.19922 a 0.646245,0.646245 0 0 0 -0.568359,0.71484 l 1.552734,13.50391 a 0.646245,0.646245 0 0 0 0.714844,0.56836 0.646245,0.646245 0 0 0 0.568359,-0.7168 l -1.552734,-13.50195 a 0.646245,0.646245 0 0 0 -0.714844,-0.56836 z" style="stroke-linecap:round;stroke-linejoin:round"/>
    </g>
    <g id="path80">
      <path id="path13" d="m 85.21769,143.9342 a 2.5416956,1.7163297 0 0 1 -2.541695,1.71633 2.5416956,1.7163297 0 0 1 -2.541696,-1.71633 2.5416956,1.7163297 0 0 1 2.541696,-1.71633 2.5416956,1.7163297 0 0 1 2.541695,1.71633 z" style="stroke-linecap:round;stroke-linejoin:round"/>
      <path id="path14" d="m 82.675781,141.66016 c -0.803659,0 -1.540358,0.21341 -2.109375,0.59765 -0.569017,0.38424 -0.990234,0.9786 -0.990234,1.67578 0,0.69718 0.421217,1.29155 0.990234,1.67578 0.569017,0.38424 1.305716,0.59961 2.109375,0.59961 0.80366,0 1.540358,-0.21537 2.109375,-0.59961 0.569017,-0.38423 0.990235,-0.9786 0.990235,-1.67578 0,-0.69718 -0.421218,-1.29154 -0.990235,-1.67578 -0.569017,-0.38424 -1.305715,-0.59765 -2.109375,-0.59765 z m 0,1.11523 c 0.60008,0 1.13348,0.17125 1.484375,0.4082 0.350896,0.23695 0.5,0.49928 0.5,0.75 0,0.25073 -0.149104,0.51501 -0.5,0.75196 -0.350895,0.23695 -0.884295,0.40625 -1.484375,0.40625 -0.60008,0 -1.133479,-0.1693 -1.484375,-0.40625 -0.350895,-0.23695 -0.5,-0.50123 -0.5,-0.75196 0,-0.25072 0.149105,-0.51305 0.5,-0.75 0.350896,-0.23695 0.884295,-0.4082 1.484375,-0.4082 z" style="stroke-linecap:round;stroke-linejoin:round"/>
    </g>
  </g>
  <g transform="matrix(-0.95648736,0.2917738,0.2917738,0.95648736,102.23001,-73.614577)" id="g81">
    <g id="path81">
      <path id="path5" d="m 83.657595,130.8411 1.552088,13.50318" style="stroke-linecap:round;stroke-linejoin:round"/>
      <path id="path6" d="m 83.583984,130.19922 a 0.646245,0.646245 0 0 0 -0.568359,0.71484 l 1.552734,13.50391 a 0.646245,0.646245 0 0 0 0.714844,0.56836 0.646245,0.646245 0 0 0 0.568359,-0.7168 l -1.552734,-13.50195 a 0.646245,0.646245 0 0 0 -0.714844,-0.56836 z" style="stroke-linecap:round;stroke-linejoin:round"/>
    </g>
    <g id="ellipse81">
      <path id="path8" d="m 85.21769,143.9342 a 2.5416956,1.7163297 0 0 1 -2.541695,1.71633 2.5416956,1.7163297 0 0 1 -2.541696,-1.71633 2.5416956,1.7163297 0 0 1 2.541696,-1.71633 2.5416956,1.7163297 0 0 1 2.541695,1.71633 z" style="stroke-linecap:round;stroke-linejoin:round"/>
      <path id="path9" d="m 82.675781,141.66016 c -0.803659,0 -1.540358,0.21341 -2.109375,0.59765 -0.569017,0.38424 -0.990234,0.9786 -0.990234,1.67578 0,0.69718 0.421217,1.29155 0.990234,1.67578 0.569017,0.38424 1.305716,0.59961 2.109375,0.59961 0.80366,0 1.540358,-0.21537 2.109375,-0.59961 0.569017,-0.38423 0.990235,-0.9786 0.990235,-1.67578 0,-0.69718 -0.421218,-1.29154 -0.990235,-1.67578 -0.569017,-0.38424 -1.305715,-0.59765 -2.109375,-0.59765 z m 0,1.11523 c 0.60008,0 1.13348,0.17125 1.484375,0.4082 0.350896,0.23695 0.5,0.49928 0.5,0.75 0,0.25073 -0.149104,0.51501 -0.5,0.75196 -0.350895,0.23695 -0.884295,0.40625 -1.484375,0.40625 -0.60008,0 -1.133479,-0.1693 -1.484375,-0.40625 -0.350895,-0.23695 -0.5,-0.50123 -0.5,-0.75196 0,-0.25072 0.149105,-0.51305 0.5,-0.75 0.350896,-0.23695 0.884295,-0.4082 1.484375,-0.4082 z" style="stroke-linecap:round;stroke-linejoin:round"/>
    </g>
  </g>
  <g transform="rotate(-20.031155,-78.996213,216.33647)" id="layer2">
    <path id="path34" d="M 88.850237,49.178546 C 70.08672,67.557211 62.830173,89.397337 65.601736,116.72836 h 52.866114 c 4.54816,-26.930163 -5.63314,-49.177338 -25.197849,-67.588583 -1.216102,-1.144405 -3.226805,-1.129721 -4.419764,0.03877 z" style="display:inline;fill:#a9d14c;fill-opacity:1;stroke:none;stroke-width:0.710295;stroke-linecap:round;stroke-linejoin:round;stroke-opacity:1"/>
    <path clip-path="url(#clipPath16)" id="path15" d="m 64.396881,87.196529 c 8.641308,5.613527 14.311533,12.217412 26.183458,16.754071 1.269418,0.48508 3.333611,0.4047 4.550356,-0.20097 5.479755,-2.72769 8.705765,-5.906139 11.046465,-9.261646 2.60383,-3.732722 4.17515,-10.944068 2.58542,-15.11315 C 104.30521,67.685346 92.872756,47.90243 92.408417,48.007156 l 44.627763,7.419878 -36.45736,71.531506 z" style="opacity:0.805733;fill:#a4c841;fill-opacity:1;stroke:#a4c841;stroke-width:0.264583;stroke-linecap:round;stroke-linejoin:round;stroke-dasharray:none;stroke-opacity:1;filter:url(#filter17)"/>
    <g id="g21">
      <ellipse ry="3.0204349" rx="2.6627517" cy="87.828758" cx="102.26712" id="path3-8" style="opacity:1;fill:#000000;fill-opacity:1;stroke:none;stroke-width:0.708258;stroke-linecap:round;stroke-linejoin:round"/>
      <circle r="1.1525344" cy="87.706223" cx="101.46156" id="path4-2" style="opacity:1;fill:#ffffff;fill-opacity:1;stroke:none;stroke-width:0.665001;stroke-linecap:round;stroke-linejoin:round"/>
    </g>
    <g id="g22">
      <ellipse ry="2.901207" rx="2.6627517" cy="87.870811" cx="81.750458" id="path3" style="opacity:1;fill:#000000;fill-opacity:1;stroke:none;stroke-width:0.694139;stroke-linecap:round;stroke-linejoin:round"/>
      <circle r="1.1525344" cy="87.791321" cx="80.876122" id="path4" style="opacity:1;fill:#ffffff;fill-opacity:1;stroke:none;stroke-width:0.665001;stroke-linecap:round;stroke-linejoin:round"/>
    </g>
    <g id="g23">
      <ellipse transform="matrix(0.51396336,-0.85781213,0.94189145,0.33591735,0,0)" ry="2.3078063" rx="5.0127463" cy="106.87973" cx="-34.444572" id="path10-7" style="fill:#c6e36d;fill-opacity:1;stroke:none;stroke-width:0.826833;stroke-linecap:round;stroke-linejoin:round;stroke-dasharray:none;stroke-opacity:1;filter:url(#filter10)"/>
      <ellipse transform="matrix(0.03034558,-0.99953948,0.97163435,-0.23648827,0,0)" ry="2.2196286" rx="2.3964798" cy="83.417931" cx="-94.041" id="path10-7-4" style="fill:#c6e36d;fill-opacity:1;stroke:none;stroke-width:0.560669;stroke-linecap:round;stroke-linejoin:round;stroke-dasharray:none;stroke-opacity:1;filter:url(#filter11)"/>
    </g>
    <path id="path7" d="m 89.560547,88.015625 a 0.63249999,0.63249999 0 0 0 -0.646485,0.617187 c -0.05097,2.14969 1.405467,3.501767 2.935547,3.523438 1.53008,0.02167 3.040692,-1.284269 3.095703,-3.492188 a 0.63249999,0.63249999 0 0 0 -0.617187,-0.648437 0.63249999,0.63249999 0 0 0 -0.648438,0.617187 c -0.0422,1.693792 -0.959491,2.27182 -1.810546,2.259766 -0.851055,-0.01205 -1.729752,-0.611395 -1.691407,-2.228516 a 0.63249999,0.63249999 0 0 0 -0.617187,-0.648437 z" style="stroke-linecap:round;stroke-linejoin:round"/>
    <ellipse transform="rotate(-11.193688)" ry="1.9132843" rx="2.8415115" cy="107.14651" cx="62.131748" id="path10" style="opacity:1;fill:#fcddb2;fill-opacity:1;stroke:none;stroke-width:0.566819;stroke-linecap:round;stroke-linejoin:round;stroke-dasharray:none;stroke-opacity:1"/>
    <ellipse transform="rotate(10.740215)" ry="1.844193" rx="2.7389007" cy="72.265419" cx="117.7728" id="path10-5" style="fill:#fcddb2;fill-opacity:1;stroke:none;stroke-width:0.546351;stroke-linecap:round;stroke-linejoin:round;stroke-dasharray:none;stroke-opacity:1"/>
  </g>
  <g transform="rotate(-20.031155,-78.996213,216.33647)" style="display:inline" id="layer1">
    <path clip-path="url(#clipPath18)" id="path2" d="m 62.335027,85.352083 c 9.147275,6.018194 18.78451,13.800243 29.699554,26.182407 8.920179,-11.20441 18.689329,-19.295919 28.742209,-26.347066 1.26967,-0.890556 2.04181,-0.359892 2.0561,1.182169 0.0206,2.216312 0.24451,5.603274 0.57771,9.889098 0.41538,5.342919 0.0684,14.018279 -2.01544,18.945589 -3.64749,8.6246 -9.52809,14.38382 -16.57933,18.09652 -1.20971,0.63695 -3.29846,1.36004 -4.63153,1.6642 -4.292616,0.97943 -8.785004,1.63616 -14.398108,0.48249 -2.205236,-0.45325 -5.622789,-1.77283 -7.592818,-2.86365 C 70.393926,128.26525 64.743422,121.84157 61.660377,112.90283 59.915959,107.8452 59.653402,99.117677 59.62082,93.758759 59.60795,91.641751 59.5432,89.462496 59.376212,87.160542 c -0.158346,-2.182759 1.130216,-3.011535 2.958815,-1.808459 z" style="fill:#f7e2b3;stroke-width:0.665001;stroke-linecap:round;stroke-linejoin:round"/>
    <path clip-path="url(#clipPath17)" id="path43" d="m 57.13958,67.634606 c 1.084048,21.144213 3.828752,37.970714 9.362369,47.546054 2.595868,4.49187 10.01102,9.1629 14.976446,10.82123 27.784785,9.27944 41.799055,-19.11796 50.822525,-61.335576 l -3.18031,73.677196 -85.126313,-0.21202 z" style="display:inline;opacity:0.805733;fill:#f9dba9;stroke-width:0.710406;stroke-linecap:round;stroke-linejoin:round"/>
    <path id="path35" d="m 77.496094,103.97461 a 0.355203,0.355203 0 0 0 -0.208985,0.17187 0.355203,0.355203 0 0 0 0.144532,0.48047 c 2.5762,1.37603 4.734422,3.70106 6.902343,6.07618 a 0.355203,0.355203 0 0 0 0.501953,0.0215 0.355203,0.355203 0 0 0 0.02344,-0.50195 C 82.689494,107.84539 80.490222,105.45425 77.767578,104 a 0.355203,0.355203 0 0 0 -0.271484,-0.0254 z" style="opacity:0.805733;fill:#ceb282;stroke-linecap:round;stroke-linejoin:round;filter:url(#filter76)"/>
    <path id="path36" d="m 67.521484,99.3125 a 0.355203,0.355203 0 0 0 -0.224609,0.449219 c 2.775227,8.301811 4.715759,10.319941 6.636719,12.625001 A 0.35523852,0.35523852 0 0 0 74.525391,112 L 74.3125,111.57617 a 0.355203,0.355203 0 0 0 -0.126953,-0.043 c -1.8352,-2.18217 -3.597609,-4.1669 -6.214844,-11.996091 A 0.355203,0.355203 0 0 0 67.521484,99.3125 Z" style="opacity:0.805733;fill:#ceb282;stroke-linecap:round;stroke-linejoin:round;filter:url(#filter75)"/>
    <path id="path37" d="m 64.998047,113.9082 a 0.355203,0.355203 0 0 0 -0.271485,0.0254 0.355203,0.355203 0 0 0 -0.148437,0.47852 c 1.341936,2.54952 2.078305,4.11295 2.925781,5.29687 0.847476,1.18392 1.812061,1.96115 3.5,2.86329 a 0.355203,0.355203 0 0 0 0.480469,-0.14649 0.355203,0.355203 0 0 0 -0.146484,-0.48047 c -1.63992,-0.87647 -2.468704,-1.55074 -3.25586,-2.65039 -0.787156,-1.09965 -1.527478,-2.65276 -2.875,-5.21289 a 0.355203,0.355203 0 0 0 -0.208984,-0.17383 z" style="opacity:0.805733;fill:#ceb282;stroke-linecap:round;stroke-linejoin:round;filter:url(#filter74)"/>
    <path id="path38" d="m 74.367187,124.76563 a 0.355203,0.355203 0 0 0 -0.253906,0.0977 0.355203,0.355203 0 0 0 -0.0098,0.50195 c 1.940291,2.0179 4.273818,3.12206 6.675781,3.88282 a 0.355203,0.355203 0 0 0 0.445312,-0.23243 0.355203,0.355203 0 0 0 -0.232422,-0.44531 c -2.340185,-0.74118 -4.54399,-1.79099 -6.376953,-3.69726 a 0.355203,0.355203 0 0 0 -0.248047,-0.10742 z" style="opacity:0.805733;fill:#ceb282;stroke-linecap:round;stroke-linejoin:round;filter:url(#filter73)"/>
    <path id="path39" d="m 109.9707,98.765625 a 0.355203,0.355203 0 0 0 -0.26172,0.07813 c -4.217,3.397805 -8.26102,7.016715 -11.107418,11.863285 a 0.355203,0.355203 0 0 0 0.126954,0.48633 0.355203,0.355203 0 0 0 0.486328,-0.12695 c 2.775686,-4.72617 6.743666,-8.28765 10.941406,-11.669931 a 0.355203,0.355203 0 0 0 0.0527,-0.5 0.355203,0.355203 0 0 0 -0.23828,-0.130859 z" style="opacity:0.805733;fill:#ceb282;stroke-linecap:round;stroke-linejoin:round;filter:url(#filter72)"/>
    <path id="path40" d="m 103.79688,118.48242 a 0.355203,0.355203 0 0 0 -0.25391,0.0957 c -1.62952,1.51312 -3.878533,2.77477 -6.894533,4.0664 a 0.355203,0.355203 0 0 0 -0.1875,0.4668 0.355203,0.355203 0 0 0 0.466797,0.1875 c 3.052285,-1.30717 5.374256,-2.60088 7.097656,-4.20117 a 0.355203,0.355203 0 0 0 0.0195,-0.50196 0.355203,0.355203 0 0 0 -0.24804,-0.11328 z" style="opacity:0.805733;fill:#ceb282;stroke-linecap:round;stroke-linejoin:round;filter:url(#filter71)"/>
    <path id="path41" d="m 110.67773,110.33398 a 0.355203,0.355203 0 0 0 -0.21093,0.17383 c -0.65873,1.23071 -2.83778,4.24195 -4.86719,5.71485 a 0.355203,0.355203 0 0 0 -0.0781,0.49609 0.355203,0.355203 0 0 0 0.4961,0.0781 c 2.19925,-1.59617 4.34306,-4.58541 5.07617,-5.95508 a 0.355203,0.355203 0 0 0 -0.14453,-0.48047 0.355203,0.355203 0 0 0 -0.27149,-0.0273 z" style="opacity:0.805733;fill:#ceb282;stroke-linecap:round;stroke-linejoin:round;filter:url(#filter70)"/>
    <path id="path42" d="m 117.05859,110.54102 a 0.355203,0.355203 0 0 0 -0.2207,0.16015 c -5.70616,9.35219 -11.7506,14.18893 -22.144531,16.58985 a 0.355203,0.355203 0 0 0 -0.265625,0.42578 0.355203,0.355203 0 0 0 0.425782,0.26562 c 10.540674,-2.43481 16.825284,-7.45906 22.591794,-16.91015 a 0.355203,0.355203 0 0 0 -0.11914,-0.48829 0.355203,0.355203 0 0 0 -0.26758,-0.043 z" style="opacity:0.805733;fill:#ceb282;stroke-linecap:round;stroke-linejoin:round;filter:url(#filter69)"/>
  </g>
</svg>