<?xml version="1.0" encoding="utf-8"?>
<!-- Generator: Adobe Illustrator 23.1.1, SVG Export Plug-In . SVG Version: 6.00 Build 0)  -->
<svg version="1.1" id="Layer_1" xmlns="http://www.w3.org/2000/svg" xmlns:xlink="http://www.w3.org/1999/xlink" x="0px" y="0px"
	 viewBox="0 0 1000 1000" style="enable-background:new 0 0 1000 1000;" xml:space="preserve">
<style type="text/css">
	.st0{opacity:0;fill:#D0EDF5;}
	.st1{fill:#3B6B7D;}
	.st2{fill:none;stroke:#3B6B7D;stroke-width:10;stroke-linecap:round;stroke-linejoin:round;stroke-miterlimit:10;}
	.st3{opacity:0.23;}
	.st4{fill:none;stroke:#474747;stroke-width:6;stroke-linecap:round;stroke-linejoin:round;stroke-miterlimit:10;}
	.st5{fill:#F2CFB1;}
	.st6{opacity:0.58;}
	.st7{fill:#EAEAEA;}
	.st8{fill:#C6C6C6;}
	.st9{fill:#D8D8D8;}
	.st10{fill:none;stroke:#3B6B7D;stroke-width:12;stroke-linecap:round;stroke-linejoin:round;stroke-miterlimit:10;}
	.st11{fill:#87D1E8;}
	.st12{fill:none;stroke:#3B6B7D;stroke-width:13;stroke-linecap:round;stroke-linejoin:round;stroke-miterlimit:10;}
	.st13{fill:none;stroke:#3B6B7D;stroke-width:4;stroke-linecap:round;stroke-linejoin:round;stroke-miterlimit:10;}
	.st14{fill:#EF9E9D;}
	.st15{opacity:0.39;fill:#EF9E9D;}
	.st16{fill:#DD8A8A;}
	.st17{fill:#BBEAF2;}
	.st18{opacity:0.52;fill:#92D7E7;}
	.st19{opacity:0.48;fill:#92D7E7;}
	.st20{fill:#D3B379;}
	.st21{fill:none;stroke:#3B6B7D;stroke-width:6;stroke-linecap:round;stroke-linejoin:round;stroke-miterlimit:10;}
	.st22{fill:#FFFFFF;}
	.st23{opacity:0.84;fill:#D8D8D8;}
	.st24{fill:none;stroke:#3B6B7D;stroke-width:8;stroke-linecap:round;stroke-linejoin:round;stroke-miterlimit:10;}
</style>
<rect id="XMLID_101_" class="st0" width="1000" height="1000"/>
<line id="XMLID_115_" class="st2" x1="452.1" y1="774.6" x2="531.3" y2="774.6"/>
<line id="XMLID_110_" class="st2" x1="417.3" y1="774.6" x2="430" y2="774.6"/>
<g id="XMLID_262_" class="st3">
	<polyline id="XMLID_269_" class="st4" points="606.9,394.4 606.9,425.4 545,425.4 	"/>
	<polyline id="XMLID_268_" class="st4" points="668.8,425.4 606.9,425.4 606.9,394.4 	"/>
	<rect id="XMLID_267_" x="576" y="425.4" class="st4" width="61.9" height="30.9"/>
	<polyline id="XMLID_266_" class="st4" points="624.5,487.2 606.9,487.2 606.9,456.3 668.8,456.3 	"/>
	<polyline id="XMLID_265_" class="st4" points="545,456.3 606.9,456.3 606.9,487.2 556.7,487.2 	"/>
	<polyline id="XMLID_264_" class="st4" points="524,425.4 576,425.4 576,456.3 545,456.3 	"/>
	<polyline id="XMLID_263_" class="st4" points="682.5,456.3 637.8,456.3 637.8,425.4 659.3,425.4 	"/>
</g>
<g id="XMLID_91_" class="st3">
	<polyline id="XMLID_120_" class="st4" points="860.1,567.6 860.1,598.5 798.3,598.5 	"/>
	<polyline id="XMLID_119_" class="st4" points="922,598.5 860.1,598.5 860.1,567.6 	"/>
	<rect id="XMLID_117_" x="829.2" y="598.5" class="st4" width="61.9" height="30.9"/>
	<polyline id="XMLID_114_" class="st4" points="877.7,660.4 860.1,660.4 860.1,629.4 922,629.4 	"/>
	<polyline id="XMLID_112_" class="st4" points="798.3,629.4 860.1,629.4 860.1,660.4 810,660.4 	"/>
	<polyline id="XMLID_100_" class="st4" points="777.2,598.5 829.2,598.5 829.2,629.4 798.3,629.4 	"/>
	<polyline id="XMLID_99_" class="st4" points="935.7,629.4 891,629.4 891,598.5 912.5,598.5 	"/>
</g>
<g id="XMLID_278_" class="st3">
	<polyline id="XMLID_285_" class="st4" points="119.1,522.6 119.1,553.5 57.3,553.5 	"/>
	<polyline id="XMLID_284_" class="st4" points="181,553.5 119.1,553.5 119.1,522.6 	"/>
	<rect id="XMLID_283_" x="88.2" y="553.5" class="st4" width="61.9" height="30.9"/>
	<polyline id="XMLID_282_" class="st4" points="136.7,615.4 119.1,615.4 119.1,584.5 181,584.5 	"/>
	<polyline id="XMLID_281_" class="st4" points="57.3,584.5 119.1,584.5 119.1,615.4 69,615.4 	"/>
	<polyline id="XMLID_280_" class="st4" points="36.2,553.5 88.2,553.5 88.2,584.5 57.3,584.5 	"/>
	<polyline id="XMLID_279_" class="st4" points="194.7,584.5 150,584.5 150,553.5 171.5,553.5 	"/>
</g>
<line id="XMLID_37_" class="st2" x1="618" y1="726" x2="902.9" y2="726"/>
<line id="XMLID_40_" class="st2" x1="148.3" y1="726" x2="548" y2="726"/>
<line id="XMLID_29_" class="st2" x1="119" y1="726" x2="125.5" y2="726"/>
<line id="XMLID_1_" class="st2" x1="75.8" y1="726" x2="100" y2="726"/>
<g>
	<path id="XMLID_106_" class="st5" d="M475.2,560.5c-10.3,0-19.2,6.1-23.2,14.8l-5.5-1.2c2.8-4.9,4.4-10.5,4.4-16.5
		c0-18.4-14.9-33.4-33.4-33.4c-11.8,0-22.2,6.1-28.1,15.4c-5.9-9.2-16.3-15.4-28.1-15.4c-7.6,0-14.6,2.5-20.2,6.8
		c-4.6-16.9-20.1-29.3-38.4-29.3c-17.5,0-32.3,11.3-37.7,26.9c-5-2.9-10.8-4.6-17-4.6c-18.5,0-33.5,15-33.5,33.5c0,0,0,0.1,0,0.1
		c-0.8-0.1-1.5-0.1-2.3-0.1c-15.7,0-28.5,12.8-28.5,28.5v50.1h317.2v-50.1C500.8,572,489.4,560.5,475.2,560.5z"/>
	<g id="XMLID_94_" class="st6">
		<path id="XMLID_97_" class="st5" d="M475.2,560.5c-10.3,0-19.2,6.1-23.2,14.8l-1.2-0.3c-0.4,5.1-1.9,9.9-4.3,14.1l5.5,1.2
			c4.1-8.8,13-14.8,23.2-14.8c14.2,0,25.6,11.5,25.6,25.6v-15C500.8,572,489.4,560.5,475.2,560.5z"/>
		<path id="XMLID_98_" class="st5" d="M212.2,572.6c0.8,0,1.5,0,2.3,0.1c0,0,0-0.1,0-0.1c0-18.5,15-33.5,33.5-33.5
			c6.2,0,12,1.7,17,4.6c5.4-15.7,20.2-26.9,37.7-26.9c18.4,0,33.8,12.4,38.4,29.3c5.6-4.3,12.6-6.8,20.2-6.8
			c11.8,0,22.2,6.1,28.1,15.4c5.9-9.2,16.3-15.4,28.1-15.4c15.8,0,29.1,11,32.5,25.8c0.6-2.4,0.9-4.9,0.9-7.5
			c0-18.4-14.9-33.4-33.4-33.4c-11.8,0-22.2,6.1-28.1,15.4c-5.9-9.2-16.3-15.4-28.1-15.4c-7.6,0-14.6,2.5-20.2,6.8
			c-4.6-16.9-20.1-29.3-38.4-29.3c-17.5,0-32.3,11.3-37.7,26.9c-5-2.9-10.8-4.6-17-4.6c-18.5,0-33.5,15-33.5,33.5c0,0,0,0.1,0,0.1
			c-0.8-0.1-1.5-0.1-2.3-0.1c-15.7,0-28.5,12.8-28.5,28.5v15C183.7,585.4,196.4,572.6,212.2,572.6z"/>
	</g>
	<path id="XMLID_42_" class="st2" d="M475.2,560.5c-10.3,0-19.2,6.1-23.2,14.8l-5.5-1.2c2.8-4.9,4.4-10.5,4.4-16.5
		c0-18.4-14.9-33.4-33.4-33.4c-11.8,0-22.2,6.1-28.1,15.4c-5.9-9.2-16.3-15.4-28.1-15.4c-7.6,0-14.6,2.5-20.2,6.8
		c-4.6-16.9-20.1-29.3-38.4-29.3c-17.5,0-32.3,11.3-37.7,26.9c-5-2.9-10.8-4.6-17-4.6c-18.5,0-33.5,15-33.5,33.5c0,0,0,0.1,0,0.1
		c-0.8-0.1-1.5-0.1-2.3-0.1c-15.7,0-28.5,12.8-28.5,28.5v50.1h317.2v-50.1C500.8,572,489.4,560.5,475.2,560.5z"/>
	<path id="XMLID_102_" class="st7" d="M515,572H143v24h0c5.5,0,10,4.5,10,10v50c0,28.7,23,52,51.7,52h248c28.6,0,52.3-23.4,52.3-52
		v-50c0-5.5,4.5-10,10-10l0,0V572z"/>
	<path id="XMLID_66_" class="st8" d="M153,606v3.5h352V606c0-5.5,4.5-10,10-10v-24H143v24C148.5,596,153,600.5,153,606z"/>
	<path id="XMLID_10_" class="st2" d="M515,572H143v24h0c5.5,0,10,4.5,10,10v50c0,28.7,23,52,51.7,52h248c28.6,0,52.3-23.4,52.3-52
		v-50c0-5.5,4.5-10,10-10l0,0V572z"/>
	<rect id="XMLID_55_" x="143" y="572" class="st9" width="372" height="24"/>
	<line id="XMLID_59_" class="st2" x1="449" y1="596" x2="430.5" y2="596"/>
	<polyline id="XMLID_3_" class="st2" points="413.1,596 143,596 143,572 515,572 515,596 463,596 	"/>
	<path id="XMLID_52_" class="st8" d="M466,717c0,5-4,9-9,9H200c-5,0-9-4-9-9l0,0c0-5,4-9,9-9h257C462,708,466,712,466,717L466,717z"
		/>
	<path id="XMLID_2_" class="st2" d="M466,717c0,5-4,9-9,9H200c-5,0-9-4-9-9l0,0c0-5,4-9,9-9h257C462,708,466,712,466,717L466,717z"
		/>
	<path id="XMLID_31_" class="st10" d="M269.6,277.2c-8.9-15.5-25.7-25.9-44.9-25.9c-28.6,0-51.8,23.2-51.8,51.8v266"/>
	<path id="XMLID_4_" class="st11" d="M318,304.4c-0.8-10.4-6.6-20.9-18.6-28c-2.7-1.6-5.8-2.6-9-2.9c-30.8-2.6-47,26.3-35.8,48.6
		c2,4,4.6,7.3,7.8,10.1L318,304.4z"/>
	<path id="XMLID_35_" class="st2" d="M318,304.4c-0.8-10.4-6.6-20.9-18.6-28c-2.7-1.6-5.8-2.6-9-2.9c-30.8-2.6-47,26.3-35.8,48.6
		c2,4,4.6,7.3,7.8,10.1L318,304.4z"/>
	<circle id="XMLID_5_" class="st5" cx="327.8" cy="452.1" r="11.2"/>
	<circle id="XMLID_32_" class="st2" cx="327.8" cy="452.1" r="11.2"/>
	<circle id="XMLID_54_" class="st5" cx="392.8" cy="464" r="20.2"/>
	<circle id="XMLID_39_" class="st2" cx="392.8" cy="464" r="20.2"/>
	<line id="XMLID_9_" class="st12" x1="195" y1="500" x2="175.1" y2="500"/>
	<path id="XMLID_6_" class="st2" d="M206.7,508h-15.4v-16h15.4c4.4,0,8,3.6,8,8l0,0C214.7,504.4,211.1,508,206.7,508z"/>
	<path id="XMLID_53_" class="st1" d="M206.7,508h-15.4v-16h15.4c4.4,0,8,3.6,8,8l0,0C214.7,504.4,211.1,508,206.7,508z"/>
	<line id="XMLID_43_" class="st13" x1="298.9" y1="381.2" x2="285.8" y2="335"/>
	<line id="XMLID_44_" class="st13" x1="313.4" y1="320.4" x2="342.2" y2="354.8"/>
	<line id="XMLID_47_" class="st13" x1="321.6" y1="364.7" x2="332.9" y2="384.9"/>
	<line id="XMLID_45_" class="st13" x1="301" y1="328" x2="314.4" y2="351.9"/>
</g>
<g>
	<rect id="XMLID_109_" x="692.7" y="523" class="st14" width="140" height="55"/>
	<rect id="XMLID_58_" x="692.7" y="523" class="st15" width="140" height="12.5"/>
	<rect id="XMLID_108_" x="692.7" y="578" class="st14" width="140" height="55"/>
	<rect id="XMLID_64_" x="692.7" y="577.8" class="st15" width="140" height="12.5"/>
	<rect id="XMLID_107_" x="692.7" y="633" class="st14" width="140" height="55"/>
	<rect id="XMLID_67_" x="692.7" y="633.8" class="st15" width="140" height="12.5"/>
	<rect id="XMLID_7_" x="692.7" y="523" class="st2" width="140" height="165"/>
	<rect id="XMLID_8_" x="692.7" y="523" class="st2" width="140" height="55"/>
	<rect id="XMLID_12_" x="692.7" y="578" class="st2" width="140" height="55"/>
	<rect id="XMLID_13_" x="692.7" y="633" class="st2" width="140" height="55"/>
	<line id="XMLID_15_" class="st2" x1="744.7" y1="541" x2="780.7" y2="541"/>
	<line id="XMLID_16_" class="st2" x1="744.7" y1="596" x2="780.7" y2="596"/>
	<line id="XMLID_17_" class="st2" x1="744.7" y1="651" x2="780.7" y2="651"/>
	<polygon id="XMLID_61_" class="st1" points="714.9,726 701.7,726 716.9,688 742.9,688 	"/>
	<polygon id="XMLID_14_" class="st2" points="714.9,726 701.7,726 716.9,688 742.9,688 	"/>
	<polygon id="XMLID_19_" class="st2" points="813.9,726 827.1,726 811.9,688 785.9,688 	"/>
	<polygon id="XMLID_68_" class="st1" points="813.9,726 827.1,726 811.9,688 785.9,688 	"/>
	<rect id="XMLID_49_" x="755.7" y="448" class="st11" width="14" height="42.7"/>
	<rect id="XMLID_22_" x="755.7" y="448" class="st2" width="14" height="42.7"/>
	<circle id="XMLID_48_" class="st11" cx="762.7" cy="503" r="18"/>
	<circle id="XMLID_20_" class="st2" cx="762.7" cy="503" r="18"/>
	<line id="XMLID_24_" class="st2" x1="777.2" y1="492.3" x2="789.6" y2="479.9"/>
	<line id="XMLID_25_" class="st2" x1="785.9" y1="472.5" x2="796.9" y2="483.5"/>
	<path id="XMLID_50_" class="st11" d="M778.3,458.5H747c-3.7,0-6.2-3.7-4.9-7.1l4.5-12.1c2.3-6.1,8.8-10.3,16.1-10.3h0
		c7.3,0,13.7,4.1,16.1,10.3l4.5,12.1C784.6,454.8,782,458.5,778.3,458.5z"/>
	<path id="XMLID_23_" class="st2" d="M778.3,458.5H747c-3.7,0-6.2-3.7-4.9-7.1l4.5-12.1c2.3-6.1,8.8-10.3,16.1-10.3h0
		c7.3,0,13.7,4.1,16.1,10.3l4.5,12.1C784.6,454.8,782,458.5,778.3,458.5z"/>
	<rect id="XMLID_46_" x="679.7" y="503" class="st16" width="166" height="20"/>
	<rect id="XMLID_11_" x="679.7" y="503" class="st2" width="166" height="20"/>
</g>
<g>
	<rect id="XMLID_28_" x="682.7" y="224" class="st17" width="160" height="192"/>
	<rect id="XMLID_60_" x="682.7" y="402" class="st18" width="160" height="14"/>
	<rect id="XMLID_121_" x="682.7" y="224" class="st19" width="160" height="14.1"/>
	<rect id="XMLID_18_" x="682.7" y="224" class="st2" width="160" height="192"/>
	<line id="XMLID_21_" class="st2" x1="659" y1="416" x2="866.3" y2="416"/>
	<rect id="XMLID_69_" x="800.1" y="357.7" class="st20" width="24.8" height="58.3"/>
	<rect id="XMLID_26_" x="800.1" y="357.7" class="st2" width="24.8" height="58.3"/>
	<path id="XMLID_82_" class="st0" d="M813.5,333h-2c-3.5,0-6.4,2.9-6.4,6.4v18.2h14.8v-18.2C819.9,335.9,817,333,813.5,333z"/>
	<path id="XMLID_27_" class="st2" d="M813.5,333h-2c-3.5,0-6.4,2.9-6.4,6.4v18.2h14.8v-18.2C819.9,335.9,817,333,813.5,333z"/>
	<line id="XMLID_70_" class="st21" x1="710.7" y1="310.3" x2="753.7" y2="267.3"/>
	<line id="XMLID_85_" class="st21" x1="764.3" y1="297.8" x2="803.1" y2="259.1"/>
	<line id="XMLID_73_" class="st21" x1="723" y1="339.2" x2="750" y2="312.2"/>
</g>
<g>
	<line id="XMLID_36_" class="st10" x1="440.1" y1="238.1" x2="589.7" y2="238.1"/>
	<rect id="XMLID_105_" x="413.1" y="224" class="st11" width="27" height="28.2"/>
	<rect id="XMLID_30_" x="413.1" y="224" class="st2" width="27" height="28.2"/>
	<rect id="XMLID_104_" x="589.7" y="224" class="st11" width="27" height="28.2"/>
	<rect id="XMLID_34_" x="589.7" y="224" class="st2" width="27" height="28.2"/>
	<rect id="XMLID_103_" x="457" y="224" class="st22" width="118" height="171"/>
	<rect id="XMLID_88_" x="457" y="224" class="st23" width="118" height="18.5"/>
	<rect id="XMLID_33_" x="457" y="224" class="st2" width="118" height="171"/>
	<g id="XMLID_38_">
		<g>
			<line class="st24" x1="566.5" y1="409" x2="566.5" y2="395"/>
		</g>
		<g>
			<line class="st24" x1="552.5" y1="409" x2="552.5" y2="395"/>
		</g>
		<g>
			<line class="st24" x1="538.5" y1="409" x2="538.5" y2="395"/>
		</g>
		<g>
			<line class="st24" x1="524.5" y1="409" x2="524.5" y2="395"/>
		</g>
		<g>
			<line class="st24" x1="510.5" y1="409" x2="510.5" y2="395"/>
		</g>
		<g>
			<line class="st24" x1="496.5" y1="409" x2="496.5" y2="395"/>
		</g>
		<g>
			<line class="st24" x1="482.5" y1="409" x2="482.5" y2="395"/>
		</g>
		<g>
			<line class="st24" x1="468.5" y1="409" x2="468.5" y2="395"/>
		</g>
	</g>
	<line id="XMLID_41_" class="st2" x1="457" y1="363.7" x2="575" y2="363.7"/>
	<line id="XMLID_56_" class="st21" x1="500" y1="227.2" x2="500" y2="328"/>
	<line id="XMLID_57_" class="st21" x1="539.7" y1="227.2" x2="539.7" y2="292"/>
</g>
</svg>
