<?xml version="1.0" encoding="utf-8"?>
<!-- Generator: Adobe Illustrator 23.1.1, SVG Export Plug-In . SVG Version: 6.00 Build 0)  -->
<svg version="1.1" id="Layer_1" xmlns="http://www.w3.org/2000/svg" xmlns:xlink="http://www.w3.org/1999/xlink" x="0px" y="0px"
	 viewBox="0 0 1000 1000" style="enable-background:new 0 0 1000 1000;" xml:space="preserve">
<style type="text/css">
	.st0{opacity:0;fill:#CDEBE8;}
	.st1{fill:#313031;}
	.st2{fill:none;stroke:#8DC6BF;stroke-width:6;stroke-linecap:round;stroke-linejoin:round;stroke-miterlimit:10;}
	.st3{fill:#6DA580;}
	.st4{fill:none;stroke:#313031;stroke-width:10;stroke-linecap:round;stroke-linejoin:round;stroke-miterlimit:10;}
	.st5{fill:#0BC6D5;}
	.st6{opacity:0.74;fill:#0BC6D5;}
	.st7{fill:none;stroke:#313031;stroke-width:14;stroke-linecap:round;stroke-linejoin:round;stroke-miterlimit:10;}
	.st8{fill:#F0F4F7;}
	.st9{fill:#DBDBDB;}
	.st10{fill:none;stroke:#313031;stroke-width:4;stroke-linecap:round;stroke-linejoin:round;stroke-miterlimit:10;}
	.st11{fill:#FFC857;}
	.st12{opacity:0.6;fill:#FFC857;}
	.st13{fill:#7C4F49;}
	.st14{opacity:0.24;fill:none;stroke:#7C4F49;stroke-width:10;stroke-linecap:round;stroke-linejoin:round;stroke-miterlimit:10;}
	.st15{opacity:0.54;fill:#7C4F49;}
	.st16{opacity:0.24;fill:#7C4F49;}
	.st17{fill:#FFFFFF;}
	.st18{fill:#C6C6C6;}
	.st19{fill:none;stroke:#313031;stroke-width:6;stroke-linecap:round;stroke-linejoin:round;stroke-miterlimit:10;}
	.st20{fill:#D89E36;}
	.st21{opacity:0.69;fill:#FFFFFF;}
</style>
<rect id="XMLID_67_" class="st0" width="1000" height="1000"/>
<polyline id="XMLID_134_" class="st2" points="253.9,390.4 253.9,421.3 192,421.3 "/>
<polyline id="XMLID_170_" class="st2" points="315.7,421.3 253.9,421.3 253.9,390.4 "/>
<rect id="XMLID_157_" x="222.9" y="421.3" class="st2" width="61.9" height="30.9"/>
<polyline id="XMLID_161_" class="st2" points="271.4,483.1 253.9,483.1 253.9,452.2 315.7,452.2 "/>
<polyline id="XMLID_176_" class="st2" points="192,452.2 253.9,452.2 253.9,483.1 203.7,483.1 "/>
<polyline id="XMLID_165_" class="st2" points="170.9,421.3 222.9,421.3 222.9,452.2 192,452.2 "/>
<polyline id="XMLID_156_" class="st2" points="329.4,452.2 284.8,452.2 284.8,421.3 306.2,421.3 "/>
<polyline id="XMLID_182_" class="st2" points="756.5,382.1 756.5,413 694.6,413 "/>
<polyline id="XMLID_181_" class="st2" points="818.3,413 756.5,413 756.5,382.1 "/>
<rect id="XMLID_180_" x="725.5" y="413" class="st2" width="61.9" height="30.9"/>
<polyline id="XMLID_177_" class="st2" points="666.2,288.2 718.3,288.2 718.3,319.1 687.3,319.1 "/>
<polyline id="XMLID_166_" class="st2" points="832.1,443.9 787.4,443.9 787.4,413 808.9,413 "/>
<rect id="XMLID_89_" x="233.5" y="524" class="st3" width="54" height="22"/>
<rect id="XMLID_116_" x="233.5" y="524" class="st4" width="54" height="22"/>
<circle id="XMLID_104_" class="st5" cx="382.6" cy="544.5" r="40"/>
<path id="XMLID_158_" class="st6" d="M367.9,544.5c0-17.7,11.5-32.6,27.3-37.9c-4-1.3-8.2-2.1-12.7-2.1c-22.1,0-40,17.9-40,40
	c0,22.1,17.9,40,40,40c4.4,0,8.7-0.7,12.7-2.1C379.4,577.1,367.9,562.2,367.9,544.5z"/>
<circle id="XMLID_112_" class="st4" cx="382.6" cy="544.5" r="40"/>
<line id="XMLID_111_" class="st7" x1="382.6" y1="499.2" x2="382.6" y2="413"/>
<polygon id="XMLID_110_" class="st4" points="446.2,436.8 319.1,436.8 337.2,346 428,346 "/>
<polygon id="XMLID_103_" class="st8" points="446.2,436.8 319.1,436.8 337.2,346 428,346 "/>
<polygon id="XMLID_154_" class="st9" points="337.2,346 319.1,436.8 365.2,436.8 375.3,346 "/>
<polygon id="XMLID_107_" class="st4" points="446.2,436.8 319.1,436.8 337.2,346 428,346 "/>
<line id="XMLID_106_" class="st10" x1="412.8" y1="436.8" x2="412.8" y2="461.7"/>
<circle id="XMLID_105_" class="st10" cx="412.8" cy="469.5" r="7.9"/>
<circle id="XMLID_108_" class="st1" cx="412.8" cy="469.5" r="7.9"/>
<rect id="XMLID_98_" x="218.2" y="706" class="st4" width="32" height="20"/>
<rect id="XMLID_93_" x="218.2" y="706" class="st1" width="32" height="20"/>
<rect id="XMLID_96_" x="381.2" y="706" class="st4" width="32" height="20"/>
<rect id="XMLID_100_" x="381.2" y="706" class="st1" width="32" height="20"/>
<path id="XMLID_74_" class="st11" d="M547.2,618V487c0-28.7,23.3-52,52-52h94.3c28.7,0,52,23.3,52,52v131H547.2z"/>
<path id="XMLID_97_" class="st12" d="M693.5,436h-94.3c-28.7,0-52,23.3-52,52v12.2c0-28.7,23.3-52,52-52h94.3c28.7,0,52,23.3,52,52
	V488C745.5,459.3,722.2,436,693.5,436z"/>
<path id="XMLID_94_" class="st4" d="M547.2,618V487c0-28.7,23.3-52,52-52h94.3c28.7,0,52,23.3,52,52v131H547.2z"/>
<rect id="XMLID_87_" x="194.2" y="626" class="st13" width="244" height="80"/>
<rect id="XMLID_102_" x="283.2" y="666" class="st14" width="59.4" height="9.2"/>
<rect id="XMLID_125_" x="194.2" y="626.6" class="st15" width="244" height="9.7"/>
<rect id="XMLID_130_" x="194.2" y="696.2" class="st16" width="244" height="9.7"/>
<rect id="XMLID_91_" x="194.2" y="626" class="st4" width="244" height="80"/>
<rect id="XMLID_75_" x="194.2" y="546" class="st13" width="244" height="80"/>
<rect id="XMLID_138_" x="283.2" y="586" class="st14" width="59.4" height="9.2"/>
<rect id="XMLID_132_" x="194.2" y="616" class="st16" width="244" height="9.7"/>
<rect id="XMLID_42_" x="194.2" y="546" class="st15" width="244" height="9.7"/>
<rect id="XMLID_90_" x="194.2" y="546" class="st4" width="244" height="80"/>
<path id="XMLID_73_" class="st11" d="M790.3,706.6h-54v-144c0-8.8,7.2-16,16-16h22c8.8,0,16,7.2,16,16V706.6z"/>
<path id="XMLID_95_" class="st12" d="M774.3,546h-22c-8.8,0-16,7.2-16,16v10c0-8.8,7.2-16,16-16h22c8.8,0,16,7.2,16,16v-10
	C790.3,553.2,783.2,546,774.3,546z"/>
<path id="XMLID_88_" class="st4" d="M790.3,706h-54V562c0-8.8,7.2-16,16-16h22c8.8,0,16,7.2,16,16V706z"/>
<rect id="XMLID_109_" x="581.6" y="237.6" transform="matrix(-1.836970e-16 1 -1 -1.836970e-16 961.2277 -322.0333)" class="st17" width="120" height="164"/>
<rect id="XMLID_86_" x="581.6" y="237.6" transform="matrix(-1.836970e-16 1 -1 -1.836970e-16 961.2277 -322.0333)" class="st4" width="120" height="164"/>
<rect id="XMLID_153_" x="575.6" y="275.6" class="st18" width="132" height="88"/>
<rect id="XMLID_84_" x="575.6" y="275.6" class="st19" width="132" height="88"/>
<polygon id="XMLID_123_" class="st1" points="599.4,346 620.3,309.7 641.3,346 "/>
<polygon id="XMLID_83_" class="st10" points="599.4,346 620.3,309.7 641.3,346 "/>
<polygon id="XMLID_114_" class="st5" points="620.3,346 644.7,303.7 669.1,346 "/>
<polygon id="XMLID_82_" class="st10" points="620.3,346 644.7,303.7 669.1,346 "/>
<circle id="XMLID_126_" class="st11" cx="678.5" cy="300.3" r="9.3"/>
<circle id="XMLID_81_" class="st10" cx="678.5" cy="300.3" r="9.3"/>
<polyline id="XMLID_80_" class="st19" points="588.5,259.6 640.5,224 692.5,259.6 "/>
<line id="XMLID_79_" class="st4" x1="342.6" y1="586" x2="283.2" y2="586"/>
<line id="XMLID_78_" class="st4" x1="283.2" y1="666" x2="342.6" y2="666"/>
<rect id="XMLID_92_" x="736.3" y="706" class="st1" width="32" height="20"/>
<rect id="XMLID_76_" x="736.3" y="706" class="st4" width="32" height="20"/>
<rect id="XMLID_62_" x="524.1" y="706" class="st1" width="32" height="20"/>
<rect id="XMLID_72_" x="524.1" y="706" class="st4" width="32" height="20"/>
<path id="XMLID_71_" class="st11" d="M556.1,706h-54V562c0-8.8,7.2-16,16-16h22c8.8,0,16,7.2,16,16V706z"/>
<path id="XMLID_101_" class="st12" d="M540.1,546h-22c-8.8,0-16,7.2-16,16v10c0-8.8,7.2-16,16-16h22c8.8,0,16,7.2,16,16v-10
	C556.1,553.2,548.9,546,540.1,546z"/>
<path id="XMLID_70_" class="st4" d="M556.1,706h-54V562c0-8.8,7.2-16,16-16h22c8.8,0,16,7.2,16,16V706z"/>
<path id="XMLID_69_" class="st11" d="M556.3,663v-48.4c0-10.3,8.3-18.6,18.6-18.6h142.8c10.3,0,18.6,8.3,18.6,18.6V663H556.3z"/>
<path id="XMLID_99_" class="st12" d="M717.7,596H574.9c-10.3,0-18.6,8.3-18.6,18.6v12c0-10.3,8.3-18.6,18.6-18.6h142.8
	c10.3,0,18.6,8.3,18.6,18.6v-12C736.3,604.3,728,596,717.7,596z"/>
<path id="XMLID_65_" class="st4" d="M556.3,663v-48.4c0-10.3,8.3-18.6,18.6-18.6h142.8c10.3,0,18.6,8.3,18.6,18.6V663H556.3z"/>
<rect id="XMLID_68_" x="627.3" y="592" transform="matrix(-1.836970e-16 1 -1 -1.836970e-16 1328.3333 35.6667)" class="st11" width="38" height="180"/>
<rect id="XMLID_77_" x="627.3" y="592" transform="matrix(-1.836970e-16 1 -1 -1.836970e-16 1328.3333 35.6667)" class="st11" width="38" height="180"/>
<rect id="XMLID_85_" x="640.3" y="579" transform="matrix(-1.836970e-16 1 -1 -1.836970e-16 1315.3333 22.6667)" class="st20" width="12" height="180"/>
<rect id="XMLID_64_" x="627.3" y="592" transform="matrix(-1.836970e-16 1 -1 -1.836970e-16 1328.3333 35.6667)" class="st4" width="38" height="180"/>
<circle id="XMLID_136_" class="st21" cx="646.7" cy="515.5" r="11"/>
<circle id="XMLID_128_" class="st19" cx="646.7" cy="515.5" r="11"/>
<line id="XMLID_2_" class="st4" x1="166.5" y1="726" x2="814.1" y2="726"/>
<line id="XMLID_178_" class="st4" x1="423.3" y1="774.6" x2="502.5" y2="774.6"/>
<line id="XMLID_179_" class="st4" x1="388.5" y1="774.6" x2="405.8" y2="774.6"/>
<line id="XMLID_118_" class="st4" x1="832.1" y1="726" x2="845.7" y2="726"/>
<ellipse id="XMLID_115_" class="st9" cx="414.9" cy="465.4" rx="2" ry="1.8"/>
</svg>
